<svg width="455" height="213" viewBox="0 0 455 213" fill="none" xmlns="http://www.w3.org/2000/svg">
<path d="M227.019 0C195.298 0 165.018 3.04286 137.461 8.48797C167.1 4.00376 200.104 2.72256 234.87 5.60526C353.586 15.0541 446.349 67.5835 442.023 122.835C441.062 135.327 435.294 146.858 425.521 157.108C443.785 141.893 454.199 124.277 454.199 105.699C454.199 47.4045 352.465 0 227.019 0Z" fill="black"/>
<path d="M219.329 205.953C100.613 196.344 7.85035 143.815 12.0158 88.5631C12.9771 76.0714 18.7447 64.5406 28.5176 54.291C10.4137 69.5052 0 87.1218 0 105.699C0 164.154 101.734 211.398 227.019 211.398C258.901 211.398 289.181 208.356 316.577 202.91C287.099 207.395 254.095 208.676 219.329 205.953Z" fill="black"/>
<path d="M122.722 124.917C122.401 125.718 122.562 126.198 124.164 126.679C126.407 127.32 129.451 128.921 131.694 131.483V171.521C131.694 174.724 129.611 176.005 127.528 176.326C126.887 176.486 126.246 176.646 125.926 177.447L125.445 178.888C124.965 180.169 125.926 180.329 126.567 180.329H141.467C142.268 180.329 142.588 180.009 142.908 179.689L143.549 178.087C143.87 177.447 143.71 176.806 142.588 176.646C138.583 175.685 137.301 175.204 137.301 171.681V136.768H137.461L168.382 176.806C170.945 180.009 171.426 180.489 171.746 180.489H177.354C178.796 180.489 179.116 179.368 179.116 177.767V131.483C179.116 128.28 181.199 126.999 183.282 126.679C183.923 126.519 184.563 126.359 184.884 125.558L185.364 124.117C185.845 122.835 184.884 122.675 184.243 122.675H169.343C168.542 122.675 168.222 122.995 167.901 123.316L167.261 124.917C166.94 125.558 167.1 126.198 168.222 126.359C172.227 127.32 173.509 127.8 173.509 131.323V164.474H173.349L143.389 126.038C141.947 124.277 140.826 122.835 138.743 122.675H124.644C123.843 122.675 123.523 122.995 123.202 123.316L122.722 124.917Z" fill="black"/>
<path d="M207.794 127.48H219.81C225.257 127.48 226.539 134.206 227.66 133.245L229.102 131.964C229.423 131.644 229.583 131.483 229.583 131.163V124.597C229.743 123.476 228.782 122.515 227.18 122.515H191.613C191.132 122.515 190.491 122.835 190.171 123.476L189.53 125.077C189.049 126.038 189.85 126.198 191.132 126.519C194.657 127.159 196.259 128.441 196.259 131.964V174.564C196.259 180.329 198.021 180.329 204.269 180.329H229.422C231.665 180.329 233.107 179.529 233.107 178.247V170.08C233.107 169.759 232.947 169.439 232.627 169.279L230.544 168.638C229.422 168.318 228.301 175.204 220.29 175.204H213.562C209.076 175.204 207.634 173.603 207.634 167.357V151.342H223.495C224.776 151.342 225.577 151.022 226.058 150.221L227.5 147.659C227.981 146.858 227.5 146.377 226.378 146.377H207.474L207.794 127.48Z" fill="black"/>
<path d="M273.481 133.405C273.801 133.085 273.961 132.765 273.961 132.444V126.359C274.122 124.917 272.84 124.277 270.437 123.156C268.033 122.195 264.989 121.554 260.504 121.554C247.526 121.554 240.798 128.601 240.798 136.128C240.798 144.616 247.206 147.499 252.012 151.022C258.421 155.506 265.791 159.67 265.31 166.877C264.989 172.642 260.504 176.646 254.576 176.646C251.051 176.646 247.847 174.884 246.245 171.681C244.322 168.318 243.842 164.795 243.041 164.955L240.477 165.916C239.676 166.236 239.997 167.517 239.997 168.318V176.326C239.997 178.408 239.997 178.568 244.162 179.849C246.886 180.81 251.051 181.29 255.697 181.29C266.912 181.29 277.326 175.845 277.005 163.674C276.685 155.986 271.398 151.502 262.426 145.417C255.697 140.932 251.532 137.889 252.333 131.804C252.974 127.64 257.139 125.398 260.343 125.398C263.708 125.398 266.111 126.679 267.713 129.882C268.835 131.964 270.276 135.487 270.917 134.847L273.481 133.405Z" fill="black"/>
<path d="M312.732 128.441H328.273C329.555 128.441 330.356 128.28 331.157 127.32L332.919 124.277C334.04 122.835 332.919 122.515 331.798 122.515H285.817C284.535 122.515 283.734 122.675 282.933 123.636L281.171 126.679C280.049 128.12 281.171 128.441 282.292 128.441H301.197V171.681C301.197 174.884 299.114 176.165 297.032 176.486C296.391 176.646 295.75 176.806 295.43 177.607L294.949 179.048C294.468 180.329 295.43 180.489 296.07 180.489H316.738C317.539 180.489 317.859 180.169 318.18 179.849L318.82 178.247C319.141 177.607 318.981 176.966 317.859 176.806C313.854 175.845 312.572 175.365 312.572 171.841L312.732 128.441Z" fill="black"/>
<path d="M83.9507 58.7752C83.9507 55.5722 86.0335 54.291 88.1162 53.9707C88.7571 53.8105 89.3979 53.6504 89.7183 52.8496L90.199 51.4083C90.6796 50.1271 89.7183 49.9669 89.0775 49.9669H68.4102C67.6092 49.9669 67.2887 50.2872 66.9683 50.6075L66.3275 52.209C66.0071 52.8496 66.1673 53.4902 67.2888 53.6504C71.294 54.6113 72.5757 55.0917 72.5757 58.615V98.8128C72.5757 102.016 70.493 103.297 68.4102 103.617C67.7694 103.777 67.1285 103.938 66.8081 104.738L66.3275 106.18C65.8469 107.461 66.8081 107.621 67.449 107.621H88.1162C88.9173 107.621 89.2377 107.301 89.5581 106.98L90.199 105.379C90.5194 104.738 90.3592 104.098 89.2377 103.938C85.2324 102.977 83.9507 102.496 83.9507 98.9729V78.6338H108.143V98.9729C108.143 102.176 106.06 103.457 103.977 103.777C103.336 103.938 102.695 104.098 102.375 104.898L101.894 106.34C101.414 107.621 102.375 107.781 103.016 107.781H123.683C124.484 107.781 124.805 107.461 125.125 107.141L125.766 105.539C126.086 104.898 125.926 104.258 124.805 104.098C120.799 103.137 119.518 102.656 119.518 99.1331V58.7752C119.518 55.5722 121.6 54.291 123.683 53.9707C124.324 53.8105 124.965 53.6504 125.285 52.8496L125.766 51.4083C126.246 50.1271 125.285 49.9669 124.644 49.9669H103.977C103.176 49.9669 102.856 50.2872 102.535 50.6075L101.894 52.209C101.574 52.8496 101.734 53.4902 102.856 53.6504C106.861 54.6113 108.143 55.0917 108.143 58.615V73.6692H83.9507V58.7752Z" fill="black"/>
<path d="M151.88 34.7526C149.477 34.7526 147.394 36.9947 147.394 39.397C147.394 41.7992 149.477 44.0413 151.88 44.0413C154.444 44.0413 156.526 41.9594 156.526 39.397C156.526 36.8346 154.444 34.7526 151.88 34.7526ZM169.664 34.7526C167.261 34.7526 165.018 36.9947 165.018 39.397C165.018 41.7992 167.1 44.0413 169.664 44.0413C172.227 44.0413 174.31 41.9594 174.31 39.397C174.31 36.8346 172.227 34.7526 169.664 34.7526ZM150.759 58.7752C150.759 55.5722 152.842 54.291 154.924 53.9707C155.565 53.8105 156.206 53.6504 156.526 52.8496L157.007 51.4083C157.488 50.1271 156.526 49.9669 155.886 49.9669H135.058C134.257 49.9669 133.937 50.2872 133.616 50.6075L132.975 52.209C132.655 52.8496 132.815 53.4902 133.937 53.6504C137.942 54.6113 139.224 55.0917 139.224 58.615V85.5203C139.224 98.012 144.19 108.582 162.294 108.582C171.106 108.582 182.801 104.258 182.801 85.2V58.7752C182.801 55.5722 184.884 54.291 186.967 53.9707C187.607 53.8105 188.248 53.6504 188.569 52.8496L189.049 51.4083C189.53 50.1271 188.569 49.9669 187.928 49.9669H172.708C171.907 49.9669 171.586 50.2872 171.266 50.6075L170.625 52.209C170.305 52.8496 170.465 53.4902 171.586 53.6504C175.592 54.6113 176.873 55.0917 176.873 58.615V85.2C176.873 97.0511 171.907 102.496 163.576 102.496C153.162 102.496 150.759 93.3677 150.759 85.3601V58.7752Z" fill="black"/>
<path d="M228.782 60.8572C229.102 60.5369 229.262 60.2166 229.262 59.8963V53.8106C229.423 52.3692 228.141 51.7286 225.738 50.6075C223.335 49.6466 220.29 49.006 215.805 49.006C202.827 49.006 196.099 56.0527 196.099 63.5797C196.099 72.0677 202.507 74.9504 207.313 78.4737C213.722 82.9579 221.092 87.1218 220.611 94.3286C220.451 100.094 215.805 104.098 209.877 104.098C206.352 104.098 203.148 102.336 201.546 99.1331C199.623 95.77 199.143 92.2466 198.342 92.4068L195.778 93.3677C194.977 93.688 195.298 94.9692 195.298 95.7699V103.777C195.298 105.859 195.298 106.02 199.463 107.301C202.187 108.262 206.352 108.742 210.998 108.742C222.213 108.742 232.627 103.297 232.306 91.1256C231.986 83.4384 226.699 78.9542 217.727 72.8684C210.998 68.3842 206.833 65.3414 207.634 59.2557C208.275 55.0918 212.44 52.8497 215.644 52.8497C219.009 52.8497 221.412 54.1309 223.014 57.3339C224.136 59.4158 225.577 62.9391 226.218 62.2985L228.782 60.8572Z" fill="black"/>
<path d="M257.46 58.7752C257.46 55.5722 259.542 54.291 261.625 53.9707C262.266 53.8105 262.907 53.6504 263.227 52.8496L263.708 51.4083C264.188 50.1271 263.227 49.9669 262.586 49.9669H241.919C241.118 49.9669 240.798 50.2872 240.477 50.6075L239.836 52.209C239.516 52.8496 239.676 53.4902 240.798 53.6504C244.803 54.6113 246.085 55.0917 246.085 58.615V98.8128C246.085 102.016 244.002 103.297 241.919 103.617C241.278 103.777 240.637 103.938 240.317 104.738L239.836 106.18C239.356 107.461 240.317 107.621 240.958 107.621H279.248C281.491 107.621 282.933 106.82 282.933 105.539V97.6917C282.933 97.3714 282.773 97.0511 282.452 96.891L280.37 96.2504C279.248 95.9301 278.127 103.617 270.116 103.617H263.548C259.062 103.617 257.62 102.016 257.62 95.1293L257.46 58.7752Z" fill="black"/>
<path d="M305.523 54.9316H317.539C322.986 54.9316 324.268 61.6579 325.389 60.697L326.831 59.4158C327.151 59.0955 327.151 58.9353 327.151 58.615V52.0489C327.312 50.9278 326.35 49.9669 324.748 49.9669H289.181C288.701 49.9669 288.06 50.2872 287.739 50.9278L287.099 52.5293C286.618 53.4902 287.419 53.6504 288.701 53.9707C292.225 54.6113 293.827 55.8925 293.827 59.4158V102.016C293.827 107.781 295.59 107.781 301.838 107.781H326.991C329.234 107.781 330.676 106.98 330.676 105.699V97.6917C330.676 97.3714 330.516 97.0511 330.195 96.891L328.113 96.2504C326.991 95.9301 325.87 102.817 317.859 102.817H311.13C306.644 102.817 305.203 101.215 305.203 94.9692V78.9541H321.063C322.345 78.9541 323.146 78.6338 323.627 77.8331L325.069 75.2707C325.549 74.4699 325.069 73.9895 323.947 73.9895H305.042V54.9316H305.523Z" fill="black"/>
<path d="M356.47 54.4511H363.039C368.166 54.4511 371.85 56.8534 372.011 65.1812C372.171 74.3098 367.204 78.4737 361.597 78.4737H356.47V54.4511ZM389.954 105.219C386.75 103.297 380.021 94.0083 372.812 81.1962C380.502 77.6729 384.026 70.9466 384.026 64.3805C383.866 54.6113 376.496 50.1271 368.806 50.1271H340.449C339.968 50.1271 339.327 50.4474 339.007 51.088L338.366 52.6895C337.886 53.6504 338.687 53.8105 339.968 54.1308C343.493 54.7714 345.095 56.0526 345.095 59.5759V99.1331C345.095 102.336 343.012 103.617 340.93 103.938C340.289 104.098 339.648 104.258 339.327 105.059L338.847 106.5C338.366 107.781 339.327 107.941 339.968 107.941H360.636C361.437 107.941 361.757 107.621 362.077 107.301L362.718 105.699C363.039 105.059 362.879 104.418 361.757 104.258C357.752 103.297 356.47 102.817 356.47 99.2932V82.9579H362.558L375.375 105.859C375.856 106.5 376.336 107.781 377.618 107.781H389.794L389.954 105.219Z" fill="black"/>
</svg>
