<?xml version="1.0" encoding="UTF-8" standalone="no"?> <svg xmlns="http://www.w3.org/2000/svg" xmlns:xlink="http://www.w3.org/1999/xlink" xmlns:serif="http://www.serif.com/" width="100%" height="100%" viewBox="0 0 1838 600" version="1.1" xml:space="preserve" style="fill-rule:evenodd;clip-rule:evenodd;stroke-miterlimit:2;"> <g transform="matrix(4.16667,0,0,4.16667,0,3.20417)"> <path d="M430.724,1.319C435.205,1.319 438.443,4.839 438.443,9.082C438.443,13.477 435.031,16.845 430.724,16.845C426.349,16.845 422.982,13.433 422.982,9.082C422.982,4.86 426.216,1.319 430.724,1.319ZM430.724,17.413C435.337,17.413 439.054,13.826 439.054,9.082C439.054,4.467 435.488,0.75 430.724,0.75C425.892,0.75 422.373,4.512 422.373,9.082C422.373,13.87 426.044,17.413 430.724,17.413ZM427.726,4.86L431.05,4.86C431.773,4.86 433.896,4.86 433.896,6.894C433.896,8.971 431.488,8.929 430.789,9.015L427.726,9.015L427.726,4.86ZM427.726,9.584L430.833,9.584C433.523,9.584 433.656,10.436 433.74,11.793C433.851,13.585 433.851,13.74 434.005,13.978L434.638,13.978C434.441,13.629 434.441,13.433 434.308,11.486C434.246,10.458 434.005,9.627 432.628,9.3L432.628,9.256C433.656,8.971 434.505,8.184 434.505,6.894C434.505,4.293 431.728,4.293 431.162,4.293L427.117,4.293L427.117,13.978L427.726,13.978L427.726,9.584ZM432.394,99.74C430.554,99.698 428.455,100.571 427.732,102.255L427.695,102.255L427.695,100.024L427.08,100.024L427.08,111.615L427.695,111.615L427.695,104.944C427.695,102.036 429.482,100.352 432.394,100.31C433.574,100.31 434.777,100.593 435.673,101.401C436.548,102.19 437.093,103.479 437.093,105.493L437.093,111.615L437.708,111.615L437.708,105.493C437.708,103.415 437.158,101.861 436.023,100.899C435.103,100.136 433.878,99.74 432.394,99.74ZM411.207,105.841L411.207,105.819L411.207,105.841ZM411.861,105.317C412.037,102.388 414.464,100.31 417.326,100.31C420.041,100.2 422.64,102.519 422.773,105.317L411.861,105.317ZM417.326,99.74C413.878,99.74 411.212,102.36 411.207,105.831C411.212,109.28 413.765,111.897 417.306,111.897C419.648,111.92 421.875,110.741 422.947,108.271L422.273,108.271C421.353,110.237 419.47,111.331 417.326,111.331C415.054,111.353 411.884,109.669 411.839,105.886L423.382,105.886L423.408,105.559C423.255,101.972 420.435,99.74 417.326,99.74ZM403.068,99.74C401.755,99.74 400.511,100.267 399.701,101.164C399.218,101.687 399.001,102.19 398.894,102.519L398.849,102.519C398.697,101.993 398.412,101.512 398.082,101.164C397.294,100.222 396.072,99.74 394.669,99.74C393.927,99.74 391.892,99.959 390.826,102.081L390.781,102.081L390.781,100.024L390.166,100.024L390.166,111.615L390.781,111.615L390.781,105.011C390.781,103.327 391.22,102.299 391.853,101.577C392.417,100.834 393.535,100.267 394.669,100.31C396.029,100.352 397.056,100.812 397.732,101.687C398.322,102.474 398.609,103.305 398.564,105.12L398.564,111.615L399.179,111.615L399.179,105.12C399.179,103.305 399.332,102.606 400.074,101.642C400.796,100.704 402.041,100.31 403.068,100.31C404.271,100.31 405.167,100.659 405.783,101.294C406.656,102.169 406.962,103.522 406.962,105.12L406.962,111.615L407.576,111.615L407.576,105.12C407.576,103.349 407.201,101.84 406.238,100.899C405.517,100.177 404.468,99.74 403.068,99.74ZM382.91,102.124L382.869,102.124L382.869,100.024L382.255,100.024L382.255,111.615L382.869,111.615L382.869,105.339C382.869,103.742 383.041,102.388 384.419,101.141C385.47,100.396 386.257,100.352 386.955,100.332L386.955,99.74C385.953,99.806 383.96,99.937 382.91,102.124ZM372.22,111.331C369.091,111.331 366.73,108.968 366.73,105.819C366.73,102.67 369.091,100.31 372.22,100.31C375.349,100.31 377.71,102.67 377.71,105.819C377.71,108.968 375.349,111.331 372.22,111.331ZM372.22,99.74C368.742,99.74 366.123,102.365 366.123,105.819C366.123,109.298 368.742,111.897 372.22,111.897C375.699,111.897 378.32,109.298 378.32,105.819C378.32,102.365 375.699,99.74 372.22,99.74ZM355.498,111.615L356.152,111.615L356.152,103.764L363.435,103.764L363.435,103.175L356.152,103.175L356.152,96.023L363.435,96.023L363.435,95.433L355.498,95.433L355.498,111.615ZM332.277,105.841L332.277,105.819L332.277,105.841ZM332.933,105.317C333.105,102.388 335.533,100.31 338.4,100.31C341.109,100.2 343.714,102.519 343.843,105.317L332.933,105.317ZM338.4,99.74C334.947,99.74 332.287,102.36 332.277,105.831C332.287,109.28 334.839,111.897 338.376,111.897C340.716,111.92 342.949,110.741 344.019,108.271L343.341,108.271C342.421,110.237 340.542,111.331 338.4,111.331C336.125,111.353 332.953,109.669 332.908,105.886L344.457,105.886L344.476,105.559C344.324,101.972 341.501,99.74 338.4,99.74ZM322.548,111.331C318.81,111.331 317.015,108.444 316.992,105.819C316.992,102.562 319.464,100.31 322.482,100.31C325.591,100.31 327.97,102.648 327.97,105.819C327.97,108.815 325.742,111.331 322.548,111.331ZM327.908,102.978L327.861,102.978C327.291,101.468 325.281,99.74 322.482,99.74C318.742,99.74 316.38,102.629 316.38,105.819C316.38,108.945 318.677,111.897 322.482,111.897C324.931,111.897 326.853,110.696 327.861,108.729L327.908,108.729L327.908,111.615L328.521,111.615L328.521,95.433L327.908,95.433L327.908,102.978ZM307.177,99.74C305.341,99.698 303.244,100.571 302.519,102.255L302.476,102.255L302.476,100.024L301.865,100.024L301.865,111.615L302.476,111.615L302.476,104.944C302.476,102.036 304.269,100.352 307.177,100.31C308.361,100.31 309.56,100.593 310.458,101.401C311.335,102.19 311.88,103.479 311.88,105.493L311.88,111.615L312.49,111.615L312.49,105.493C312.49,103.415 311.945,101.861 310.808,100.899C309.888,100.136 308.666,99.74 307.177,99.74ZM285.988,105.841C285.988,105.837 285.992,105.835 285.992,105.831C285.992,105.827 285.988,105.822 285.988,105.819L285.988,105.841ZM286.646,105.317C286.822,102.388 289.248,100.31 292.113,100.31C294.822,100.2 297.429,102.519 297.554,105.317L286.646,105.317ZM292.113,99.74C288.66,99.74 285.998,102.36 285.992,105.831C285.998,109.28 288.552,111.897 292.089,111.897C294.429,111.92 296.662,110.741 297.732,108.271L297.054,108.271C296.134,110.237 294.257,111.331 292.113,111.331C289.837,111.353 286.666,109.669 286.626,105.886L298.169,105.886L298.189,105.559C298.037,101.972 295.22,99.74 292.113,99.74ZM276.347,111.331C272.566,111.331 270.748,108.444 270.728,105.819C270.728,102.562 273.201,100.31 276.283,100.31C279.386,100.31 281.769,102.648 281.769,105.819C281.769,108.815 279.539,111.331 276.347,111.331ZM281.707,102.978L281.662,102.978C281.091,101.468 279.082,99.74 276.283,99.74C272.478,99.74 270.115,102.629 270.115,105.819C270.115,108.945 272.41,111.897 276.283,111.897C278.732,111.897 280.656,110.696 281.638,108.729L281.707,108.729L281.707,110.433C281.707,113.8 279.062,115.989 276.347,115.989C275.3,115.989 274.007,115.637 272.935,114.786C272.105,114.153 271.712,113.451 271.425,112.992L270.728,112.992C271.736,115.288 274.115,116.556 276.437,116.556C278.23,116.556 282.296,115.181 282.316,110.325L282.316,100.024L281.707,100.024L281.707,102.978ZM255.072,105.841L255.072,105.819L255.072,105.841ZM255.73,105.317C255.902,102.388 258.329,100.31 261.196,100.31C263.906,100.2 266.511,102.519 266.638,105.317L255.73,105.317ZM261.196,99.74C257.743,99.74 255.078,102.36 255.072,105.831C255.078,109.28 257.635,111.897 261.17,111.897C263.513,111.92 265.746,110.741 266.818,108.271L266.138,108.271C265.218,110.237 263.341,111.331 261.196,111.331C258.92,111.353 255.75,109.669 255.705,105.886L267.253,105.886L267.273,105.559C267.121,101.972 264.298,99.74 261.196,99.74ZM248.296,110.696L248.251,110.696L245.039,101.597L244.578,101.597L241.363,110.696L241.318,110.696L237.406,100.024L236.728,100.024L240.992,111.615L241.689,111.615L244.751,102.825L244.796,102.825L247.898,111.615L248.603,111.615L252.89,100.024L252.187,100.024L248.296,110.696ZM222.341,105.841L222.341,105.819L222.341,105.841ZM222.996,105.317C223.171,102.388 225.597,100.31 228.462,100.31C231.175,100.2 233.777,102.519 233.908,105.317L222.996,105.317ZM228.462,99.74C225.009,99.74 222.347,102.36 222.341,105.831C222.347,109.28 224.904,111.897 228.441,111.897C230.781,111.92 233.011,110.741 234.083,108.271L233.404,108.271C232.486,110.237 230.603,111.331 228.462,111.331C226.191,111.353 223.019,109.669 222.974,105.886L234.521,105.886L234.542,105.559C234.39,101.972 231.568,99.74 228.462,99.74ZM213.288,111.331C210.095,111.331 207.865,108.815 207.865,105.819C207.865,102.648 210.25,100.31 213.354,100.31C216.371,100.31 218.843,102.562 218.843,105.819C218.821,108.444 217.026,111.331 213.288,111.331ZM213.354,99.74C210.554,99.785 208.785,101.294 207.976,102.978L207.931,102.978L207.931,95.433L207.319,95.433L207.319,111.615L207.931,111.615L207.931,108.729L207.976,108.729C208.981,110.696 210.906,111.897 213.354,111.897C217.16,111.897 219.455,108.945 219.455,105.819C219.455,102.629 217.093,99.74 213.354,99.74ZM153.111,23.979C153.885,25.291 154.93,26.325 156.109,27.397C156.965,28.175 158.802,28.111 159.056,27.977C159.307,27.84 158.801,26.923 158.636,26.398C158.541,26.212 158.455,26.002 158.32,25.873C157.599,24.755 157.125,23.74 156.425,22.927C156.284,22.763 156.11,22.411 155.898,22.191C155.35,21.713 154.621,21.108 153.848,21.611C153.359,22.056 152.491,22.635 152.85,23.452C152.911,23.635 153.011,23.797 153.111,23.979ZM151.639,66.644C152.939,66.972 154.811,66.778 155.643,66.042C155.269,64.22 153.489,63.056 152.038,62.038C150.635,61.053 148.969,60.016 147.435,59.234C131.218,50.971 102.948,53.183 82.962,56.431C82.084,56.465 83.123,55.726 83.162,55.429C84.64,53.364 85.347,50.277 84.163,47.42C81.523,41.046 73.351,38.673 64.943,37.811C46.271,35.894 29.954,40.683 17.29,46.622C10.456,49.825 4.438,53.832 0.873,59.034C0.874,59.034 0.73,59.286 0.751,59.54C0.772,59.792 0.874,60.234 0.873,60.234C1.359,62.921 3.903,61.306 6.401,60.691C6.623,60.599 7.05,60.394 7.006,60.151C6.996,59.711 5.775,59.914 6.104,57.942C6.525,54.684 13.835,50.606 16.691,49.023C25.125,44.347 34.649,41.33 45.121,39.412C52.802,38.007 61.811,38.099 69.347,39.612C75.825,40.913 80.927,42.477 83.362,47.822C84.059,51.4 83.383,53.561 81.762,55.429C79.915,57.559 77.424,57.569 73.752,58.433C71.752,58.905 69.794,59.366 68.146,59.634C66.698,60.017 64.577,60.273 62.339,61.037C61.078,61.468 58.228,62.443 58.335,64.239C58.527,67.458 66.188,65.442 67.145,65.24C70.831,64.463 73.089,63.442 75.353,62.237C77.93,60.868 80.187,59.316 82.763,58.433C85.567,57.473 88.43,56.912 91.973,56.431C105.843,54.546 123.228,53.763 133.619,55.831C141.628,57.547 145.44,59.739 149.437,63.64C150.357,64.537 150.614,65.793 151.639,66.644ZM395.242,36.821L392.503,36.81C393.544,35.517 394.968,33.914 396.013,32.62C395.732,34.019 395.523,35.422 395.242,36.821ZM392.306,59.433C391.865,61.323 390.835,65.249 389.498,64.641C388.376,64.13 388.341,62.769 387.304,60.815C385.25,56.936 382.828,52.647 380.291,49.023C383.908,45.298 387.83,41.879 391.501,38.211C392.492,37.932 393.841,38.016 395.105,38.011C394.402,44.454 393.847,52.786 392.306,59.433ZM374.285,41.414C375.029,39.96 377.167,39.58 379.089,39.212C382.027,38.649 386.451,38.38 389.919,38.153C389.148,38.992 388.027,40.051 387.296,40.814C385.091,43.11 382.123,45.716 379.558,47.813C378.015,45.854 375.964,43.603 374.285,41.414ZM327.697,56.987C328.511,56.601 329.166,56.878 329.455,57.502C330.076,58.849 327.707,61.384 326.804,62.075C325.908,62.768 324.033,64.06 322.375,64.737C322.396,60.278 325.355,58.545 327.697,56.987ZM184.675,78.657C184.117,91.266 184.467,104.554 182.272,116.096C181.262,121.405 179.627,126.021 177.267,130.913C175.719,134.116 172.081,140.761 167.856,141.323C163.053,141.966 159.043,138.481 157.246,136.118C151.574,128.668 150.324,114.21 154.442,104.685C157.937,96.601 164.521,91.542 171.261,86.665C175.707,83.448 180.315,80.968 184.217,78.73L184.691,78.499C184.691,78.499 184.665,78.535 184.675,78.657ZM439.353,30.602C438.712,29.567 438.128,29.472 437.833,29.684C435.996,31.254 434.505,33.151 431.949,34.207C425.658,36.801 416.142,36.522 407.318,36.611C403.642,36.645 400.029,37.034 396.908,36.81C397.41,33.458 398.445,30.499 399.714,27.599C402.179,21.959 405.4,17.873 407.318,11.182C407.826,9.422 408.751,6.235 408.589,4.24C408.494,3.039 407.681,2.854 406.724,1.905C403.326,4.848 401.593,9.556 400.113,14.385C398.615,19.265 397.49,24.693 396.507,30.002C394.902,32.533 393,34.932 391.107,36.821C387.343,37.008 383.771,36.913 379.693,37.01C376.488,37.087 370.921,36.739 370.679,39.612C370.55,41.147 373.345,43.323 374.285,44.218C375.951,45.8 377.175,47.227 378.437,48.655C375.357,51.457 371.431,54.058 367.675,56.431C363.859,58.84 359.941,61.206 355.662,63.039C348.017,67.01 337.023,71.107 326.234,68.845C324.568,68.19 322.863,67.54 322.427,65.642C325.57,63.918 328.56,62.655 331.136,60.103C332.126,59.117 333.535,57.493 332.935,56.156C332.119,54.343 328.97,55.435 327.671,55.962C323.33,57.724 320.345,61.597 319.107,65.996C315.156,67.209 310.607,69.036 305.806,69.646C303.988,69.877 302.113,70.009 300.804,69.646C293.562,67.644 294.765,55.804 286.988,54.83C283.265,54.363 279.187,56.47 276.376,58.232C270.292,62.047 265.689,65.888 259.357,69.245C256.484,70.769 252.714,73.18 248.947,71.247C249.298,69.052 249.851,67.26 250.548,65.24C251.427,62.689 253.458,59.048 250.75,57.032C249.119,55.821 245.699,55.65 242.74,55.831C237.378,56.156 231.82,57.554 226.521,59.034C224.091,59.713 221.505,60.549 219.112,61.436C209.62,64.961 200.591,68.79 192.084,73.249C189.916,74.386 187.054,76.155 185.652,76.734C185.454,71.031 186.531,65.872 188.28,61.638C189.138,59.553 189.892,57.58 191.483,56.431C192.04,55.968 193.051,56.263 193.085,55.429C193.241,54.121 193.284,52.852 192.844,52.138C192.572,51.694 192.015,51.61 191.483,51.425C189.451,51.986 188.572,54.203 187.877,56.031C185.774,61.582 184.641,69.408 184.672,77.223C183.972,77.994 179.071,80.326 176.466,82.258C172.145,85.33 167.137,88.374 162.651,92.269C158.41,95.953 155.188,100.919 152.839,106.284C146.822,120.034 152.606,138.758 164.853,142.326C164.853,142.326 165.4,142.481 166.206,142.481C167.011,142.481 167.656,142.326 167.656,142.326C169.602,141.679 171.141,140.927 172.462,139.722C175.414,137.026 177.785,132.554 179.669,128.108C181.565,123.641 183.265,118.707 184.275,113.694C185.425,107.978 185.354,102.091 185.476,95.874C185.594,89.893 185.181,83.806 185.741,78.029C193.391,73.148 202.983,68.979 212.705,65.24C217.333,63.461 222.121,61.428 227.123,60.035C232.367,58.574 238.042,57.025 243.738,56.832C246.169,56.748 249.179,56.755 249.748,58.433C250.58,60.537 245.125,66.433 246.943,70.647C247.437,71.794 248.974,73.239 250.947,73.449C253.544,73.729 257.306,71.906 259.957,70.445C262.751,68.91 265.087,67.327 267.367,65.842C272.75,62.33 277.265,58.154 282.386,56.632C284.617,55.966 286.64,55.587 288.39,56.431C291.75,58.668 291.648,66.941 294.996,70.046C296.695,71.623 300.019,71.566 303.205,71.247C309.251,70.644 314.253,68.441 319.107,67.187C319.294,68.448 320.425,70.395 321.425,70.847C327.253,73.372 337.984,70.597 344.851,68.443C349.419,67.014 353.673,65.293 357.662,63.438C365.851,59.636 372.841,54.321 379.289,49.623C381.794,52.867 384.16,56.392 385.898,60.636C386.765,62.763 387.312,65.019 388.101,67.243C388.417,68.145 388.789,68.855 389.08,69.872C389.46,71.193 389.798,72.766 390.666,73.233C391.587,73.726 392.498,72.289 393,70.15C393.335,68.726 393.4,66.787 393.501,65.642C394.324,56.455 395.523,46.135 396.71,37.942C407.517,37.672 420.392,37.574 429.544,35.607C433.281,34.807 437.156,34.367 439.353,31.805C439.353,31.805 439.634,31.056 439.353,30.602Z" style="fill:white;stroke:white;stroke-width:1.5px;"></path> </g> </svg> 